<?xml version="1.0" encoding="utf-8"?>
<!-- Generator: Adobe Illustrator 23.0.3, SVG Export Plug-In . SVG Version: 6.00 Build 0)  -->
<svg version="1.1" id="Layer_1" xmlns="http://www.w3.org/2000/svg" xmlns:xlink="http://www.w3.org/1999/xlink" x="0px" y="0px"
	 viewBox="0 0 882 304.5" style="enable-background:new 0 0 882 304.5;" xml:space="preserve">
<style type="text/css">
	.st0{fill:#0089D6;}
	.st1{fill:#FF0000;}
	.st2{fill:#FFFFFF;}
</style>
<title>logo-product-azure</title>
<path class="st0" d="M237.7,188.7c29.1-5.1,53.2-9.4,53.5-9.5l0.5-0.1l-27.5-32.7c-15.1-18-27.5-32.8-27.5-32.9
	c0-0.2,28.4-78.4,28.6-78.7c0.1-0.1,19.4,33.3,46.9,80.9c25.7,44.6,46.9,81.3,47.1,81.7l0.4,0.6l-87.4,0l-87.4,0L237.7,188.7z
	 M573,180.8c-13.3-0.8-21-8.4-23.1-22.6c-0.5-3.8-0.6-3.9-0.6-28.4l-0.1-23.7H561l0,22.9c0,20.7,0.1,23.1,0.3,24.5
	c0.8,5.9,2.4,9.9,5.1,12.7c2.2,2.3,5.1,3.8,8.2,4.3c2.6,0.3,5.3,0.3,7.9,0c3.4-0.7,6.5-2.4,9-4.9c3.1-3.2,5.2-7.2,6-11.6l0.3-1.6
	l0-23.1l0-23.1h12v72.7h-11.9v-5.8c0.1-1.9,0-3.8-0.1-5.7c-0.3,0.3-0.5,0.7-0.7,1c-2.2,3.9-5.4,7-9.2,9.2
	C583.6,180.3,579.1,181.2,573,180.8L573,180.8z M708,180.7c-4.8-0.4-9.5-1.9-13.7-4.5c-8.5-5.3-13.6-14-15-25.9
	c-0.5-4.4-0.6-8.8-0.1-13.2c0.9-7.7,3.8-14.9,8.4-21.1c1.6-1.8,3.3-3.5,5.1-5.1c3.8-3,8.2-5.2,13-6.2c3.5-0.6,7-0.9,10.5-0.6
	c7.2,0.6,14,4.1,18.7,9.6c4.7,5.5,7.2,13.3,7.5,22.8c0,1.5,0.1,4.1,0,5.8l-0.1,3.1l-25.8,0l-25.8,0v1.1c0.1,3.7,0.8,7.4,2.3,10.9
	c1.2,2.9,3,5.5,5.2,7.7c3.7,3.2,8.2,5.1,13.1,5.5c2.9,0.1,5.7,0,8.5-0.3c5.8-0.9,11.4-3.1,16.1-6.6c0.5-0.4,1-0.8,1.1-0.8
	c0.1-0.1,0.2,1,0.2,5.4v5.5l-1.2,0.8c-5.3,3.2-11.1,5.3-17.3,6C715.3,180.8,711.7,180.9,708,180.7L708,180.7z M730.5,134.6
	c0-5.9-2.5-12.4-6-15.7c-2.5-2.4-5.7-3.9-9.1-4.4c-2.4-0.2-4.7-0.2-7.1,0.2c-3.7,0.7-7,2.5-9.6,5.1c-2.9,2.9-5.1,6.4-6.4,10.2
	c-0.5,1.6-1,3.3-1.2,5l-0.1,0.6h39.5V134.6z M380.8,178.9c0-0.1,8.8-23.1,19.4-51.1l19.4-50.9h12.5l0.5,1.3
	c1.6,4.1,38.8,100.8,38.8,100.8c0,0-3,0.1-6.6,0.1h-6.6l-5.4-14.3l-5.4-14.3h-43.2l-0.2,0.5c-0.1,0.3-2.4,6.7-5.1,14.3l-4.9,13.8
	h-6.6C382.2,179.1,380.8,179,380.8,178.9L380.8,178.9z M443.6,139.6c0,0-3.6-9.8-8-21.8c-8.3-22.4-8.7-23.7-9.4-27.3
	c-0.3-1.7-0.5-1.7-0.6-0.2c-0.3,1.7-0.6,3.3-1.1,4.9c-0.2,0.7-3.9,10.9-8.3,22.7c-4.3,11.8-7.9,21.5-7.9,21.6
	c0,0.1,7.9,0.1,17.7,0.1C435.6,139.6,443.6,139.6,443.6,139.6L443.6,139.6z M475.5,177.2v-1.9l21.5-29.6l21.5-29.6l-19.5-0.1
	l-19.5-0.1l0-5l0-4.9h56.4v3.3l-21.5,29.8c-11.8,16.4-21.5,29.8-21.5,29.8s9.6,0.1,21.3,0.1h21.3v10h-59.9L475.5,177.2z M633.5,179
	c0,0-0.1-16.5-0.1-36.5v-36.4h11.8v7.5c0,4.1,0,7.5,0.1,7.5c0.3-0.5,0.5-1,0.6-1.5c1.4-3.8,3.6-7.3,6.6-10.1
	c2.5-2.5,5.8-4.1,9.3-4.6c1.3-0.2,2.6-0.2,3.9-0.1c1.8,0,3.7,0.2,5.4,0.8l0.5,0.2v12.2l-1.4-0.7c-2.4-1.2-5.1-1.8-7.8-1.6
	c-1.6,0-3.2,0.3-4.7,0.9c-3.1,1.1-5.7,3.3-7.4,6.1c-2.6,4.3-4.3,9.1-4.9,14.2c-0.1,0.9-0.2,7.9-0.2,21.8l0,20.5h-5.8
	C636.2,179.1,633.6,179,633.5,179L633.5,179z M132.8,178.7c0-0.1,13-22.5,28.8-50l28.8-49.9L224,50.6c18.5-15.5,33.6-28.2,33.7-28.2
	c-0.1,0.5-0.3,0.9-0.5,1.4c-0.4,0.8-16.8,35.9-36.4,78.2l-35.8,76.8l-26,0C144.6,178.8,132.8,178.8,132.8,178.7L132.8,178.7z"/>
<path class="st1" d="M626.6,213.1h105c6.6,0,12,5.4,12,12v39c0,6.6-5.4,12-12,12h-105c-6.6,0-12-5.4-12-12v-39
	C614.6,218.5,619.9,213.1,626.6,213.1z"/>
<path class="st2" d="M637.8,232.1l10,0c4.7,0,8.3,2.9,8.3,6.9c0,2.9-2.1,4.5-3.7,5.2c2.5,0.7,4.4,2.7,4.4,5.8c0,3.7-3,7-8.4,7
	l-10.6,0L637.8,232.1z M642.7,236.4l0,6l4.7,0c2.1,0,3.6-1.3,3.6-3c0-1.8-1.5-3-3.7-3L642.7,236.4z M642.7,246.4l0,6.3l5.2,0
	c2.2,0,3.8-1.3,3.8-3.2c0-1.8-1.6-3.1-3.7-3.1L642.7,246.4z"/>
<path class="st2" d="M661.1,232l16.2,0l0,4.6l-11.3,0l0,5.5l9.8,0l0,4.6l-9.8,0l0,5.7l11.3,0l0,4.6l-16.2,0L661.1,232z"/>
<path class="st2" d="M691.5,236.6l0,20.4l-4.9,0l0-20.4l-7.4,0l0-4.6l19.7,0l0,4.6L691.5,236.6z"/>
<path class="st2" d="M715.5,251.4l-11,0l-2.2,5.6l-5.1,0l10.1-25l5.7,0l10.1,25l-5.4,0L715.5,251.4z M710,237.2l-3.8,9.9l7.6,0
	L710,237.2z"/>
</svg>
