<?xml version="1.0" encoding="utf-8"?>
<!-- Generator: Adobe Illustrator 23.1.1, SVG Export Plug-In . SVG Version: 6.00 Build 0)  -->
<svg version="1.1" xmlns="http://www.w3.org/2000/svg" x="0px" y="0px"
     viewBox="0 0 300 102.5" style="enable-background:new 0 0 300 102.5;" xml:space="preserve">
<style type="text/css">
	.st0{fill:#D71920;}
	.st1{fill:#FFFFFF;}
</style>
    <g id="Layer_2">
	<rect class="st0" width="300" height="102.5"/>
</g>
    <g id="svg9080"
    >
	<g id="layer1" transform="translate(-214.79085,-504.8117)">
		<g id="g8981" transform="matrix(3.7307125,0,0,-3.7307125,316.19477,556.0159)">
			<path id="path8983" class="st0"
                  d="M0,0c0-7.4-6-13.5-13.5-13.5c-7.4,0-13.5,6-13.5,13.5s6,13.5,13.5,13.5C-6,13.5,0,7.4,0,0"/>
		</g>
        <g id="g8985" transform="matrix(3.7307125,0,0,-3.7307125,331.37241,529.48233)">
			<path id="path8987" class="st1" d="M0,0h7.3v-1.5H4.6v-7.5H2.7v7.5L0-1.5V0z"/>
		</g>
        <g id="g8989" transform="matrix(3.7307125,0,0,-3.7307125,372.93926,535.09219)">
			<path id="path8991" class="st1" d="M0,0h2.4c0.8,0,1.4-0.3,1.4-1.1c0-0.8-0.5-1.2-1.4-1.2H0V0z M0-4h2.1c0,0,1.3-2.8,1.4-3.6h2.4
				L4-3.8c1.3,0.3,1.6,1.9,1.6,3c0,1.8-2,2.3-3.8,2.3h-3.8v-9.1H0C0-7.5,0-4,0-4z"/>
		</g>
        <g id="g8993" transform="matrix(3.7307125,0,0,-3.7307125,403.83816,529.48233)">
			<path id="path8995" class="st1" d="M0,0h6.5v-1.5H1.9v-2.1h4.2v-1.5H1.9v-2.4h4.7v-1.5L0-9.1V0z"/>
		</g>
        <g id="g8997" transform="matrix(3.7307125,0,0,-3.7307125,457.68875,563.25199)">
			<path id="path8999" class="st1" d="M0,0l-3.3,6l0,0V0h-1.8v9.1h2.4l3.3-5.9l0,0v5.9h1.8V0H0z"/>
		</g>
        <g id="g9001" transform="matrix(3.7307125,0,0,-3.7307125,484.36001,535.35408)">
			<path id="path9003" class="st1" d="M0,0h1c2.3,0,2.6-1.5,2.6-3c0-1.4-0.3-3-2.6-3H0V0z M-1.9-7.5h3.1C4-7.5,5.7-6.1,5.7-3
				c0,3.1-1.8,4.6-4.6,4.5h-3.1C-1.9,1.6-1.9-7.5-1.9-7.5z"/>
		</g>
        <g id="g9005" transform="matrix(3.7307125,0,0,-3.7307125,354.00217,591.00437)">
			<path id="path9007" class="st1" d="M0,0h-0.9v4l-1-4h-1l-1,4l0-4h-0.9v5h1.5l0.9-3.4L-1.5,5H0V0z"/>
		</g>
        <path id="path9009" class="st1" d="M382.6,591h-3.8v-18.7h3.8V591z"/>
        <g id="g9011" transform="matrix(3.7307125,0,0,-3.7307125,457.0411,578.9094)">
			<path id="path9013" class="st1" d="M0,0c-0.1-0.1-0.2-0.2-0.3-0.3c-0.1,0-0.2,0-0.3,0c-0.1,0-0.3,0-0.5,0h-0.1H-2v1.3h0.8
				c0.4,0,0.6,0,0.7,0c0.1,0,0.2,0,0.3-0.1C-0.1,0.8,0,0.7,0,0.6c0-0.1,0.1-0.2,0.1-0.3C0.1,0.2,0,0.1,0,0 M0.1-1.2l0.3,0.1
				C0.6-1,0.8-0.8,1-0.6c0.1,0.2,0.2,0.6,0.2,0.9c0,0.3-0.1,0.6-0.2,0.8C0.8,1.4,0.6,1.6,0.3,1.7C0.2,1.7,0,1.7-0.1,1.7
				c-0.2,0-0.5,0-0.8,0H-3v-5h1v2l1,0l1.1-2h1.2C1.3-3.2,0.1-1.2,0.1-1.2z"/>
		</g>
        <g id="g9015" transform="matrix(3.7307125,0,0,-3.7307125,494.54112,586.86627)">
			<path id="path9017" class="st1" d="M0,0c-0.2-0.2-0.5-0.3-0.9-0.3c-0.3,0-0.5,0.1-0.7,0.2C-1.8,0-1.9,0.1-2,0.3
				c-0.1,0.1-0.1,0.3-0.2,0.4c-0.1,0.2-0.1,0.4-0.1,0.7c0,0.5,0.1,0.9,0.3,1.1c0.2,0.4,0.6,0.6,1.1,0.6c0.5,0,0.9-0.2,1.2-0.6
				c0.1-0.3,0.2-0.6,0.2-1.1C0.5,0.8,0.3,0.3,0,0 M0.9,3.2C0.5,3.8-0.1,4-0.9,4c-0.8,0-1.4-0.2-1.8-0.7c-0.4-0.5-0.6-1.1-0.6-1.9
				c0-0.7,0.2-1.3,0.5-1.7c0.4-0.6,1.1-0.8,1.9-0.8c0.8,0,1.4,0.3,1.9,0.8c0.4,0.5,0.5,1.1,0.5,1.8C1.5,2.2,1.3,2.8,0.9,3.2"/>
		</g>
        <g id="g9019" transform="matrix(3.7307125,0,0,-3.7307125,419.22212,578.41361)">
			<path id="path9021" class="st1" d="M0,0c-0.1,0.3-0.2,0.9-1.1,0.9c-0.5,0-1.2-0.3-1.2-1.7c0-0.9,0.4-1.7,1.2-1.7
				c0.6,0,1,0.3,1.1,0.9h1C0.8-2.7,0.1-3.5-1.1-3.5c-1.3,0-2.3,0.9-2.3,2.6c0,1.7,1,2.6,2.3,2.6C0.4,1.8,1,0.7,1,0H0z"/>
		</g>
        <g id="g9023" transform="matrix(3.7307125,0,0,-3.7307125,507.16322,565.38671)">
			<path id="path9025" class="st1" d="M0,0h-0.5v-1.4h-0.2V0h-0.5v0.2H0V0z"/>
		</g>
        <g id="g9027" transform="matrix(3.7307125,0,0,-3.7307125,513.79085,570.75595)">
			<path id="path9029" class="st1" d="M0,0h-0.2v1.4L-0.7,0h-0.2l-0.5,1.4l0-1.4h-0.2v1.6h0.3l0.4-1.2l0-0.1l0-0.1l0.1,0.3l0.4,1.1
				H0V0z"/>
		</g>
        <g>
			<path class="st1" d="M223.6,556.1l1.5-3.2c5-1.4,13.2-4.1,21.1-11.8l0.2,0h4.2l-5.4,11.5l8.6,0l-1.6,3.4l-8.6,0
				c0,0-4,8.1-5.4,13.9c-1.1,6.5,0,11.3,5.8,13.1c3.6,1.1,8,0.9,12.8-0.5c11.2-3.5,23.1-11.2,31.9-21.3
				c14.4-16.7,14.7-33.8,0.6-38.2c-9-2.8-21.7,0.3-33.5,7.3c14.7-9.5,30.8-13.9,41.9-10.4c2.1,0.6,3.9,1.5,5.4,2.6
				c-9.2-10.1-22.5-16.5-37.2-16.5c-27.7,0-50.2,22.5-50.2,50.2c0,10.2,3.1,19.8,8.3,27.7c-2-4.9-1.7-11.2,0.8-18.1l0.1-0.2l0.2-0.5
				l0.2-0.5l0.1-0.2c0.9-2.3,2.1-4.7,3.5-7.1c0.2-0.4,0.4-0.8,0.6-1.2L223.6,556.1z"/>
            <path class="st1" d="M308.6,529.5c3.4,9.1-0.8,22.7-12.4,36.2c-17.4,20.2-44.9,32.5-61.4,27.3c-2-0.6-3.8-1.5-5.3-2.6
				c9.2,9.8,22.2,15.9,36.6,15.9c27.7,0,50.2-22.5,50.2-50.2C316.2,546.4,313.4,537.2,308.6,529.5z"/>
		</g>
	</g>
</g>
</svg>
