<?xml version="1.0" encoding="UTF-8"?>
<svg width="250px" height="43px" viewBox="0 0 250 43" version="1.1" xmlns="http://www.w3.org/2000/svg" xmlns:xlink="http://www.w3.org/1999/xlink">
    <!-- Generator: Sketch 61 (89581) - https://sketch.com -->
    <title>Trend Micro | Conformity logo</title>
    <desc>Created with Sketch.</desc>
    <defs>
        <polygon id="path-1" points="0 42.735 125.230875 42.735 125.230875 0.5411175 0 0.5411175"></polygon>
    </defs>
    <g id="Page-1" stroke="none" stroke-width="1" fill="none" fill-rule="evenodd">
        <g id="Product-Dashboard" transform="translate(-28.000000, -19.000000)">
            <g id="Trend-Micro-|-Conformity-logo" transform="translate(28.000000, 18.000000)">
                <g id="Group-22" transform="translate(0.000000, 0.500000)">
                    <polygon id="Fill-1" fill="#020303" points="48.5711573 10.4680537 60.0622523 10.4680537 60.0622523 12.8259862 55.8361073 12.8259862 55.8361073 24.6601163 52.7944148 24.6601163 52.7944148 12.8259862 48.5711573 12.8259862"></polygon>
                    <g id="Group-21" transform="translate(0.000000, 0.036671)">
                        <path d="M66.0391463,18.989817 L69.2546663,18.989817 C69.2546663,18.989817 71.2476188,23.3609145 71.5034513,24.6233295 L75.2496938,24.6233295 L72.3714338,18.7882695 C74.4001913,18.264477 74.9251388,15.844752 74.9251388,14.0077245 C74.9251388,11.1271545 71.7136613,10.341177 69.0196238,10.431267 L62.9939888,10.431267 L62.9939888,24.6233295 L66.0391463,24.6233295 L66.0391463,18.989817 Z M66.0391463,12.7891995 L69.7963613,12.7891995 C71.1274988,12.809412 71.9134763,13.337247 71.9134763,14.585802 C71.9134763,15.8372445 71.1274988,16.503102 69.7963613,16.521582 L66.0391463,16.521582 L66.0391463,12.7891995 Z" id="Fill-2" fill="#020303"></path>
                        <polygon id="Fill-4" fill="#020303" points="79.0238873 10.4313825 89.2023248 10.4313825 89.2023248 12.789315 82.0684673 12.789315 82.0684673 16.12611 88.6311773 16.12611 88.6311773 18.48462 82.0684673 18.48462 82.0684673 22.2655125 89.4159998 22.2655125 89.4159998 24.623445 79.0238873 24.623445"></polygon>
                        <polygon id="Fill-6" fill="#020303" points="101.654091 24.6232718 96.442731 15.1874992 96.4005735 15.2267692 96.4005735 24.6232718 93.5546535 24.6232718 93.5546535 10.4312093 97.3291935 10.4312093 102.509369 19.7047042 102.549216 19.6665893 102.549216 10.4312093 105.395714 10.4312093 105.395714 24.6232718"></polygon>
                        <path d="M109.817458,24.6232718 L114.6494,24.6232718 C119.072473,24.6625418 121.823683,22.4622668 121.823683,17.5269518 C121.823683,12.5927918 119.072473,10.3925168 114.6494,10.4312093 L109.817458,10.4312093 L109.817458,24.6232718 Z M112.862038,12.9005993 L114.43688,12.9005993 C118.050875,12.8613293 118.582753,15.2660393 118.582753,17.5269518 C118.582753,19.7890193 118.050875,22.3069193 114.43688,22.2653393 L112.862038,22.2653393 L112.862038,12.9005993 Z" id="Fill-8" fill="#020303"></path>
                        <polygon id="Fill-10" fill="#020303" points="58.0816005 36.286635 56.609553 36.286635 56.609553 30.0825525 55.058388 36.286635 53.529168 36.286635 51.979158 30.0825525 51.956058 36.286635 50.482278 36.286635 50.482278 28.4089575 52.8586905 28.4089575 54.276453 33.7762425 55.697103 28.4089575 58.0816005 28.4089575"></polygon>
                        <mask id="mask-2" fill="white">
                            <use xlink:href="#path-1"></use>
                        </mask>
                        <g id="Clip-13"></g>
                        <polygon id="Fill-12" fill="#020303" mask="url(#mask-2)" points="68.494965 36.286635 70.08078 36.286635 70.08078 28.4089575 68.494965 28.4089575"></polygon>
                        <path d="M101.522132,33.0099577 C101.522132,33.0099577 101.881337,32.9233328 102.013007,32.8644277 C102.395312,32.7102352 102.692725,32.4278378 102.89716,32.0848028 C103.113722,31.7313727 103.166275,31.1226877 103.166275,30.6837878 C103.166275,30.2668327 103.01266,29.8134952 102.80938,29.4554452 C102.572605,29.0448428 102.24805,28.7618677 101.82994,28.6076752 C101.631857,28.5406852 101.448212,28.4962177 101.279582,28.4742728 C100.978127,28.4303827 100.557707,28.4090152 100.024675,28.4090152 L96.6797948,28.4090152 L96.6797948,36.2866928 L98.2661873,36.2866928 L98.2661873,33.1820527 L99.7803923,33.1653052 L101.459185,36.2866928 L103.363202,36.2866928 L101.522132,33.0099577 Z M101.3818,31.2029602 C101.283047,31.4166352 101.113262,31.5627427 100.8736,31.6435927 C100.747705,31.6886377 100.596977,31.7134703 100.421417,31.7215552 C100.238927,31.7354152 99.9721223,31.7417677 99.6302423,31.7417677 L99.4437098,31.7417677 L98.2661873,31.7417677 L98.2661873,29.7436177 L99.5095448,29.7436177 C100.080692,29.7436177 100.447405,29.7488152 100.609105,29.7626752 C100.775425,29.7759577 100.929617,29.8285102 101.068795,29.9157127 C101.2201,30.0052252 101.321162,30.1137952 101.3818,30.2471977 C101.444747,30.3857977 101.47651,30.5434552 101.47651,30.7184377 C101.47651,30.9026602 101.444747,31.0632052 101.3818,31.2029602 L101.3818,31.2029602 Z" id="Fill-14" fill="#020303" mask="url(#mask-2)"></path>
                        <path d="M118.609144,29.4558495 C117.931737,28.668717 116.973087,28.278327 115.735505,28.278327 C114.519289,28.278327 113.578542,28.6450395 112.919037,29.377887 C112.259532,30.111312 111.928047,31.117317 111.928047,32.3907045 C111.928047,33.4775595 112.196584,34.3738395 112.734237,35.087052 C113.397785,35.974092 114.407832,36.418767 115.756294,36.418767 C117.049895,36.418767 118.028757,35.9989245 118.695192,35.1638595 C119.26634,34.444872 119.555667,33.5098995 119.555667,32.3595195 C119.555667,31.1560095 119.239197,30.1869645 118.609144,29.4558495 M117.140562,34.5470895 C116.768652,34.883772 116.30261,35.053557 115.74359,35.053557 C115.299492,35.053557 114.914299,34.946142 114.592055,34.733622 C114.335067,34.5667245 114.123702,34.3426545 113.962002,34.063722 C113.838417,33.851202 113.749482,33.634062 113.689999,33.4140345 C113.609727,33.1148895 113.568147,32.759727 113.568147,32.3491245 C113.568147,31.6145445 113.70848,31.0162545 113.983947,30.552522 C114.353547,29.948457 114.939709,29.6429595 115.74359,29.6429595 C116.595979,29.6429595 117.2012,29.9790645 117.560982,30.6535845 C117.795447,31.093062 117.914412,31.649772 117.914412,32.3260245 C117.914412,33.3389595 117.657425,34.079892 117.140562,34.5470895" id="Fill-15" fill="#020303" mask="url(#mask-2)"></path>
                        <path d="M85.489173,30.9954645 C85.360968,30.525957 85.1086005,29.643537 83.7584055,29.643537 C82.973583,29.643537 81.8203155,30.167907 81.8203155,32.3814645 C81.8203155,33.7882545 82.3747155,35.0506695 83.7584055,35.0506695 C84.6627705,35.0506695 85.293978,34.539582 85.489173,33.579777 L87.123498,33.579777 C86.798943,35.279937 85.6861005,36.461502 83.7260655,36.461502 C81.646488,36.461502 80.155383,35.063952 80.155383,32.3595195 C80.155383,29.6221695 81.7325355,28.234437 83.7468555,28.234437 C86.088618,28.234437 87.0386055,29.8404645 87.123498,30.9954645 L85.489173,30.9954645 Z" id="Fill-16" fill="#020303" mask="url(#mask-2)"></path>
                        <polygon id="Fill-17" fill="#020303" mask="url(#mask-2)" points="122.445766 25.521111 121.596841 25.521111 121.596841 27.7774035 121.259003 27.7774035 121.259003 25.521111 120.416431 25.521111 120.416431 25.2167685 122.445766 25.2167685"></polygon>
                        <path d="M125.230644,27.777519 L124.906666,27.777519 L124.906666,25.633839 L124.164001,27.777519 L123.860814,27.777519 L123.127966,25.598034 L123.119304,27.777519 L122.793016,27.777519 L122.793016,25.2163065 L123.302949,25.2163065 L123.905859,27.0296565 C123.910479,27.0354315 123.929536,27.1047315 123.973427,27.2398665 C124.002301,27.3218715 124.017894,27.377889 124.022514,27.409074 L124.167466,26.996739 L124.780194,25.2163065 L125.230644,25.2163065 L125.230644,27.777519 Z" id="Fill-18" fill="#020303" mask="url(#mask-2)"></path>
                        <path d="M3.8439555,25.6660058 C3.850308,25.6417507 3.8601255,25.6209607 3.871098,25.5943958 C3.8970855,25.5198982 3.927693,25.4419357 3.955413,25.3680158 C3.9814005,25.2992933 4.008543,25.2323033 4.036263,25.1635808 C4.0472355,25.1323958 4.061673,25.1006332 4.073223,25.0706033 C4.4665005,24.0992483 4.9619955,23.1007507 5.5614405,22.0895482 C5.640558,21.9214958 5.721408,21.7569082 5.802258,21.5905882 L3.2756955,21.5969408 L3.889578,20.2444358 C5.9772405,19.6738657 9.4561005,18.5107807 12.777303,15.2912182 L12.8760555,15.2837107 L14.624148,15.2837107 L12.3632355,20.1277807 L15.993978,20.1173858 L15.3269655,21.5599808 L11.703153,21.5721082 C11.703153,21.5721082 10.0024155,24.9718508 9.4249155,27.4031258 C8.977353,30.1173758 9.4168305,32.1432458 11.8492605,32.9009258 C13.350183,33.3669683 15.224748,33.2595533 17.243688,32.6884058 C21.9416505,31.2238658 26.9647455,27.9944857 30.639378,23.7186757 C36.6898455,16.6905008 36.809388,9.49947075 30.9079155,7.66359825 C27.1218255,6.48607575 21.783993,7.79411325 16.8434805,10.7393633 C23.0030955,6.76500825 29.7771705,4.89968325 34.4503005,6.35498325 C35.3269455,6.62814075 36.0846255,7.00409325 36.730848,7.46724825 C32.869683,3.21165075 27.295653,0.54071325 21.0961905,0.54071325 C9.446283,0.54071325 0.0001155,9.98572575 0.0001155,21.6373657 C0.0001155,25.9397408 1.2902505,29.9371958 3.498033,33.2739908 C2.662968,31.2123158 2.780778,28.5685208 3.8439555,25.6660058" id="Fill-19" fill="#D71920" mask="url(#mask-2)"></path>
                        <path d="M38.9843685,10.4457622 C40.3946235,14.2768973 38.6309385,19.9999223 33.7579935,25.6623098 C26.4422235,34.1688847 14.885871,39.3132548 7.951251,37.1539822 C7.089621,36.8871773 6.3417585,36.5175773 5.7041985,36.0625073 C9.5526585,40.1696873 15.0238935,42.7349423 21.096306,42.7349423 C32.750256,42.7349423 42.1964235,33.2899298 42.1964235,21.6371348 C42.1964235,17.5247573 41.015436,13.6895797 38.9843685,10.4457622" id="Fill-20" fill="#D71920" mask="url(#mask-2)"></path>
                    </g>
                </g>
                <g id="Logo-/-CC-logo-/-Cloud-Conformity-dk-purple" transform="translate(103.322702, 10.500000)">
                    <g id="Conformity" transform="translate(0.000000, 5.000000)" fill="#000000">
                        <g transform="translate(51.795219, 0.134652)">
                            <path d="M9.67603878,4.70580435 C8.91489751,4.03047826 7.89330194,3.51913043 6.61125208,3.51913043 C4.40750139,3.51913043 2.66399446,5.44226087 2.66399446,7.81581522 C2.66399446,10.1691304 4.40729917,12.0922609 6.7714072,12.0922609 C7.87287812,12.0922609 8.97475346,11.6626957 9.67583657,10.905587 L11.3390637,12.7880326 C10.1973518,14.0566957 8.654241,14.6500326 6.59103047,14.6500326 C2.84497784,14.6500326 2.39808173e-14,11.580913 2.39808173e-14,7.81622826 C2.39808173e-14,4.03068478 2.94507479,0.961771739 6.59103047,0.961771739 C8.75454017,0.961771739 10.2578144,1.65754348 11.3390637,2.7626413 L9.67603878,4.70580435 Z" id="Path"></path>
                            <path d="M11.179313,9.47315217 C11.179313,6.60848913 13.3830637,4.27582609 16.1679834,4.27582609 C18.9531053,4.27582609 21.1768753,6.60848913 21.1768753,9.47315217 C21.1768753,12.3175761 18.9537119,14.6498261 16.1679834,14.6498261 C13.3830637,14.6498261 11.179313,12.3175761 11.179313,9.47315217 Z M18.7122659,9.45291304 C18.7122659,7.8773587 17.651036,6.62934783 16.188205,6.62934783 C14.7059612,6.62934783 13.6237008,7.8773587 13.6237008,9.45291304 C13.6237008,11.0280543 14.7059612,12.2969239 16.188205,12.2969239 C17.651036,12.2971304 18.7122659,11.0280543 18.7122659,9.45291304 Z" id="Shape" fill-rule="nonzero"></path>
                            <path d="M24.8434571,14.363587 L22.3986648,14.363587 L22.3986648,4.56268478 L24.8434571,4.56268478 L24.8434571,5.52466304 C25.4446454,4.72645652 26.3659418,4.27623913 27.5476925,4.27623913 C29.7716648,4.27623913 31.1938504,5.87244565 31.1938504,8.43001087 L31.1938504,14.3637935 L28.7494626,14.3637935 L28.7494626,8.79823913 C28.7494626,7.46844565 27.9883213,6.62976087 26.8071773,6.62976087 C25.5839723,6.62976087 24.8434571,7.46844565 24.8434571,8.79823913 L24.8434571,14.363587 L24.8434571,14.363587 Z" id="Path"></path>
                            <path d="M38.767651,2.90555435 C38.4679668,2.59866304 37.9462493,2.35290217 37.4457645,2.35290217 C36.6243629,2.35290217 36.1234737,2.90555435 36.1234737,3.9691413 L36.1234737,4.56247826 L38.6279197,4.56247826 L38.6279197,6.77205435 L36.1234737,6.77205435 L36.1234737,14.3633804 L33.6790859,14.3633804 L33.6790859,6.77205435 L32.1161579,6.77205435 L32.1161579,4.56247826 L33.6790859,4.56247826 L33.6790859,3.98979348 C33.6790859,1.49356522 35.0412133,-1.26121336e-13 37.1847036,-1.26121336e-13 C38.4871773,-1.26121336e-13 39.3490222,0.368228261 39.9502105,1.02290217 L38.767651,2.90555435 Z" id="Path"></path>
                            <path d="M38.4073019,9.47315217 C38.4073019,6.60848913 40.6110526,4.27582609 43.3959723,4.27582609 C46.1810942,4.27582609 48.4050665,6.60848913 48.4050665,9.47315217 C48.4050665,12.3175761 46.1810942,14.6498261 43.3959723,14.6498261 C40.6112548,14.6498261 38.4073019,12.3175761 38.4073019,9.47315217 Z M45.9402548,9.45291304 C45.9402548,7.8773587 44.8790249,6.62934783 43.4165983,6.62934783 C41.9339501,6.62934783 40.8520942,7.8773587 40.8520942,9.45291304 C40.8520942,11.0280543 41.9339501,12.2969239 43.4165983,12.2969239 C44.8790249,12.2971304 45.9402548,11.0280543 45.9402548,9.45291304 Z" id="Shape" fill-rule="nonzero"></path>
                            <path d="M52.0712438,14.363587 L49.6272604,14.363587 L49.6272604,4.56268478 L52.0712438,4.56268478 L52.0712438,5.62668478 C52.612374,4.80823913 53.4137562,4.27623913 54.4153324,4.27623913 C55.0567618,4.27623913 55.5776704,4.46066304 55.9584432,4.7671413 L54.936241,7.14090217 C54.6159307,6.87469565 54.1348587,6.71133696 53.6744127,6.71133696 C52.6926537,6.71133696 52.0712438,7.55022826 52.0712438,8.87981522 L52.0712438,14.363587 L52.0712438,14.363587 Z" id="Path"></path>
                            <path d="M59.2032022,14.363587 L56.7592188,14.363587 L56.7592188,4.56268478 L59.2032022,4.56268478 L59.2032022,5.60623913 C59.7845734,4.78820652 60.7064765,4.27644565 61.8477839,4.27644565 C63.250759,4.27644565 64.3320083,4.93111957 64.9133795,6.0771087 C65.4737202,5.11554348 66.4556814,4.27644565 67.9781662,4.27644565 C70.2021385,4.27644565 71.6645651,5.81131522 71.6645651,8.43021739 L71.6645651,14.364 L69.2205817,14.364 L69.2205817,8.79844565 C69.2205817,7.46865217 68.4788532,6.62996739 67.3375457,6.62996739 C66.1549861,6.62996739 65.4338837,7.46865217 65.4338837,8.79844565 L65.4338837,14.364 L62.9894958,14.364 L62.9894958,8.79844565 C62.9894958,7.46865217 62.2485762,6.62996739 61.1064598,6.62996739 C59.9243047,6.62996739 59.2032022,7.46865217 59.2032022,8.79844565 L59.2032022,14.363587 L59.2032022,14.363587 Z" id="Path"></path>
                            <path d="M73.2291108,1.78021739 C73.2291108,0.98201087 73.8697313,0.306891304 74.6512964,0.306891304 C75.4526787,0.306891304 76.0937036,0.98201087 76.0937036,1.78021739 C76.0937036,2.59825 75.4526787,3.23268478 74.6512964,3.23268478 C73.8697313,3.23268478 73.2291108,2.59825 73.2291108,1.78021739 Z M75.8935097,14.363587 L73.4491219,14.363587 L73.4491219,4.56268478 L75.8935097,4.56268478 L75.8935097,14.363587 Z" id="Shape" fill-rule="nonzero"></path>
                            <path d="M76.7549501,4.56268478 L78.4580139,4.56268478 L78.4580139,2.02556522 L80.9024017,2.02556522 L80.9024017,4.56268478 L83.5071468,4.56268478 L83.5071468,6.77226087 L80.9222188,6.77226087 L80.9222188,10.9264457 C80.9222188,11.846913 81.3033961,12.2971304 82.0240942,12.2971304 C82.4649252,12.2971304 82.9059584,12.0922609 83.1461911,11.8058152 L84.2484709,13.6678152 C83.7069363,14.1998152 82.8056593,14.6500326 81.6239086,14.6500326 C79.6800055,14.6500326 78.4377922,13.4020217 78.4377922,11.0084348 L78.4377922,6.77226087 L76.7549501,6.77226087 L76.7549501,4.56268478 L76.7549501,4.56268478 Z" id="Path"></path>
                            <path d="M89.2371413,11.314913 L91.5409889,4.56268478 L94.0055983,4.56268478 L90.0785623,15.6120109 C89.3376427,17.759837 88.1152465,18.6606848 86.512482,18.6606848 C85.4898753,18.6606848 84.5089252,18.2104674 83.8877175,17.6171304 L84.9895928,15.6522826 C85.4500388,16.1025 85.991169,16.3073696 86.5322992,16.3073696 C87.2135651,16.3073696 87.6543961,15.8980435 88.0547839,14.7524674 L88.1346593,14.506913 L83.7475817,4.5628913 L86.4522216,4.5628913 L89.2371413,11.314913 Z" id="Path"></path>
                        </g>
                    </g>
                    <rect id="Rectangle" fill="#050708" x="34.6772983" y="0.5" width="1" height="26"></rect>
                </g>
            </g>
        </g>
    </g>
</svg>