<?xml version="1.0" encoding="utf-8"?>
<!-- Generator: Adobe Illustrator 23.0.3, SVG Export Plug-In . SVG Version: 6.00 Build 0)  -->
<svg version="1.1" id="Layer_1" xmlns="http://www.w3.org/2000/svg" xmlns:xlink="http://www.w3.org/1999/xlink" x="0px" y="0px"
	 viewBox="0 0 882 304.5" style="enable-background:new 0 0 882 304.5;" xml:space="preserve">
<style type="text/css">
	.st0{fill:#EA4335;}
	.st1{fill:#4285F4;}
	.st2{fill:#34A853;}
	.st3{fill:#FBBC05;}
	.st4{fill:#5F6368;}
	.st5{fill:#FF0000;}
	.st6{fill:#FFFFFF;}
</style>
<title>logo-product-gcp</title>
<path class="st0" d="M123.2,109.6h4.6l13.2-13.2l0.6-5.6C117.1,69,79.5,71.3,57.8,96c-6,6.8-10.4,15-12.8,23.8
	c1.5-0.6,3.1-0.7,4.6-0.3l26.5-4.4c0,0,1.3-2.2,2-2.1C89.9,100.1,109.7,98.6,123.2,109.6L123.2,109.6z"/>
<path class="st1" d="M160,119.7c-3-11.2-9.3-21.3-18-29l-18.6,18.6c7.8,6.4,12.3,16.1,12.1,26.2v3.3c9.1,0,16.5,7.4,16.5,16.5
	c0,9.1-7.4,16.5-16.5,16.5c0,0,0,0,0,0h-33.1l-3.3,3.3v19.8l3.3,3.3h33.1c23.7,0.2,43.2-18.9,43.3-42.7
	C179,141.3,171.9,127.8,160,119.7z"/>
<path class="st2" d="M69.4,198.2h33.1v-26.5H69.4c-2.4,0-4.7-0.5-6.8-1.5l-4.6,1.4l-13.3,13.2l-1.2,4.6
	C50.9,195.2,60,198.2,69.4,198.2z"/>
<path class="st3" d="M69.4,112.3c-23.8,0.1-42.9,19.5-42.7,43.3c0.1,13.3,6.3,25.7,16.8,33.8l19.2-19.2c-8.3-3.8-12-13.6-8.3-21.9
	c3.8-8.3,13.6-12,21.9-8.3c3.7,1.7,6.6,4.6,8.3,8.3l19.2-19.2C95.5,118.5,82.8,112.3,69.4,112.3z"/>
<path class="st4" d="M266.9,179.7c-11.5,0.1-22.6-4.4-30.7-12.6c-16.7-16.1-17.2-42.8-1.1-59.5c0.4-0.4,0.7-0.7,1.1-1.1
	c8-8.3,19.1-12.9,30.7-12.8c11-0.1,21.6,4.1,29.4,11.8l-8.3,8.4c-5.7-5.5-13.3-8.5-21.1-8.4c-8.3-0.1-16.2,3.3-21.8,9.3
	c-12,12.2-12,31.7,0,43.8c12,11.9,31.2,12.1,43.5,0.5c3.6-4,5.9-9.1,6.4-14.4h-27.9v-11.9h39.4c0.4,2.4,0.5,4.8,0.5,7.2
	c0.5,10.1-3.2,20-10.2,27.4C289,175.7,278.2,180.1,266.9,179.7L266.9,179.7z M358.6,171.8c-11,10.5-28.3,10.5-39.3,0
	c-10.7-11-10.7-28.5,0-39.5c11-10.5,28.3-10.5,39.3,0C369.3,143.3,369.3,160.9,358.6,171.8L358.6,171.8z M328,164.1
	c5.7,6.1,15.2,6.4,21.3,0.7c0.2-0.2,0.5-0.5,0.7-0.7c6.2-6.8,6.2-17.2,0-24c-5.8-6.1-15.5-6.3-21.6-0.5c0,0,0,0,0,0
	c-0.2,0.1-0.3,0.3-0.5,0.5C321.7,146.8,321.7,157.3,328,164.1L328,164.1z M419.1,171.8c-11,10.5-28.3,10.5-39.3,0
	c-10.7-11-10.7-28.5,0-39.5c11-10.5,28.3-10.5,39.3,0C429.8,143.3,429.8,160.8,419.1,171.8z M388.4,164.1c5.7,6.1,15.2,6.4,21.3,0.7
	c0.2-0.2,0.5-0.5,0.7-0.7c6.2-6.8,6.2-17.2,0-24c-5.8-6.1-15.5-6.3-21.6-0.5c0,0,0,0,0,0c-0.2,0.1-0.3,0.3-0.5,0.5
	C382.1,146.9,382.1,157.3,388.4,164.1L388.4,164.1z M458.8,204.5c-5.6,0.2-11-1.6-15.5-4.9c-3.9-3-7-6.9-9-11.4l10.6-4.4
	c1.1,2.7,3,5.1,5.2,6.9c2.5,2,5.5,3,8.7,2.9c4,0.2,8-1.3,10.8-4.2c2.8-3.4,4.2-7.7,3.9-12.1v-4h-0.4c-3.6,4.3-9,6.6-14.5,6.3
	c-7,0-13.8-2.9-18.6-8.1c-5.2-5.1-8.1-12.2-7.9-19.5c-0.1-7.3,2.7-14.4,7.9-19.6c4.8-5.2,11.5-8.1,18.6-8.1c3,0,5.9,0.6,8.5,1.9
	c2.3,1,4.4,2.5,6,4.4h0.4v-4.4h11.5v49.5c0.6,7.9-2.1,15.7-7.4,21.6C472.7,202.2,465.8,204.8,458.8,204.5L458.8,204.5z M459.7,168.8
	c4,0.1,7.9-1.6,10.5-4.6c2.9-3.3,4.4-7.5,4.2-11.9c0.2-4.4-1.3-8.8-4.2-12.1c-2.6-3-6.5-4.7-10.5-4.6c-4.1-0.1-8.1,1.6-10.9,4.6
	c-3.1,3.2-4.7,7.6-4.6,12c-0.1,4.4,1.6,8.7,4.6,11.9C451.6,167.2,455.5,168.9,459.7,168.8z M505.6,96.9V178h-12.1V96.9H505.6z
	 M538.9,179.7c-7.3,0.2-14.4-2.7-19.6-7.9c-5.2-5.2-8-12.3-7.9-19.7c-0.3-7.4,2.5-14.6,7.6-19.9c4.8-5.1,11.6-7.9,18.6-7.8
	c3.2,0,6.3,0.6,9.3,1.8c2.7,1.1,5.1,2.6,7.1,4.6c3.3,3.1,5.8,6.9,7.4,11.1l1.3,3.2l-37.2,15.3c2.3,5.3,7.6,8.6,13.4,8.4
	c5.6,0,10.7-2.9,13.6-7.7l9.3,6.3c-2.4,3.4-5.4,6.3-8.9,8.5C548.7,178.4,543.8,179.8,538.9,179.7L538.9,179.7z M523.3,151.2L548,141
	c-0.8-1.8-2.1-3.3-3.9-4.2c-1.9-1.1-4.1-1.7-6.4-1.6c-3.8,0.1-7.4,1.7-10,4.4C524.7,142.6,523,146.9,523.3,151.2z M626.1,179.7
	c-21.1,0.4-38.5-16.5-38.9-37.6c0-0.5,0-1,0-1.6c-0.5-21.1,16.2-38.7,37.4-39.1c0.5,0,1,0,1.5,0c10.6-0.3,20.7,4.2,27.5,12.3
	l-6.7,6.5c-5-6.3-12.7-9.8-20.8-9.5c-7.7-0.2-15.2,2.8-20.7,8.3c-5.7,5.7-8.7,13.6-8.4,21.6c-0.3,8.1,2.7,15.9,8.4,21.6
	c5.5,5.5,12.9,8.4,20.7,8.3c9,0.1,17.5-3.9,23.2-10.9l6.7,6.7c-3.5,4.2-7.9,7.5-12.9,9.8C637.9,178.6,632,179.8,626.1,179.7
	L626.1,179.7z M674,178h-9.6v-75h9.6V178z M689.7,132.9c10.5-10.4,27.4-10.4,37.9,0c5,5.3,7.6,12.3,7.4,19.5
	c0.2,7.2-2.5,14.3-7.4,19.5c-11.2,10-28.4,9-38.4-2.2C679.8,159.1,680,143.2,689.7,132.9z M696.9,165.9c6.1,6.5,16.4,6.8,22.9,0.6
	c0,0,0,0,0,0c0.2-0.2,0.4-0.4,0.6-0.6c3.4-3.6,5.2-8.5,5-13.5c0.2-5-1.6-9.8-5-13.5c-6.1-6.5-16.4-6.8-22.9-0.6c0,0,0,0,0,0
	c-0.2,0.2-0.4,0.4-0.6,0.6C690.3,146.7,690.3,158.1,696.9,165.9L696.9,165.9z M788.3,178h-9.3v-7.1h-0.3c-1.7,2.7-4,4.9-6.8,6.4
	c-2.9,1.7-6.2,2.6-9.5,2.6c-5.5,0.4-10.9-1.8-14.6-5.9c-3.5-4.4-5.3-10-5-15.7v-31.6h9.6v29.8c0,9.6,4.2,14.4,12.7,14.4
	c3.8,0.1,7.4-1.6,9.8-4.6c2.5-3.2,3.8-7.1,3.8-11.1v-28.4h9.6L788.3,178L788.3,178z M821,179.7c-6.6,0-12.9-2.8-17.2-7.8
	c-9.6-11.2-9.6-27.7,0-38.9c4.3-5,10.6-7.9,17.2-7.9c3.7-0.1,7.3,0.8,10.5,2.5c2.8,1.4,5.2,3.6,7,6.3h0.4l-0.4-7.1V103h9.6v75h-9.3
	v-7.1h-0.4c-1.7,2.7-4.1,4.8-7,6.3C828.2,178.9,824.6,179.7,821,179.7L821,179.7z M822.6,170.9c4.4,0.1,8.6-1.8,11.6-5
	c3.3-3.7,4.9-8.6,4.6-13.5c0.3-4.9-1.4-9.8-4.6-13.5c-5.8-6.4-15.8-6.9-22.2-1c0,0,0,0,0,0c-0.4,0.3-0.7,0.7-1,1
	c-3.3,3.7-4.9,8.5-4.6,13.5c-0.3,4.9,1.4,9.8,4.6,13.5C813.9,169.1,818.1,171,822.6,170.9L822.6,170.9z"/>
<path class="st5" d="M621.6,213.1h214c6.6,0,12,5.4,12,12v39c0,6.6-5.4,12-12,12h-214c-6.6,0-12-5.4-12-12v-39
	C609.6,218.5,614.9,213.1,621.6,213.1z"/>
<path class="st6" d="M631.3,232.1h4.9v14.7c0,3.5,2.1,5.9,5.4,5.9c3.2,0,5.3-2.3,5.3-5.9v-14.8h4.9v14.8c0,6.4-4.1,10.7-10.3,10.7
	c-6.1,0-10.2-4.3-10.2-10.7V232.1z"/>
<path class="st6" d="M657.5,232.1h8.9c6,0,10,3.3,10,8.3c0,5-4,8.3-10.1,8.3h-3.9v8.4h-4.9V232.1z M662.3,236.4v8h4.4
	c2.7,0,4.5-1.6,4.5-4c0-2.4-1.8-4-4.5-4H662.3z"/>
<path class="st6" d="M697.9,238.7c-1.5-1.3-3.5-2.3-6-2.3c-4.3,0-7.7,3.7-7.7,8.2c0,4.5,3.4,8.2,8,8.2c2.1,0,4.3-0.8,5.7-2.3
	l3.2,3.6c-2.2,2.4-5.2,3.5-9.2,3.5c-7.3,0-12.8-5.9-12.8-13c0-7.2,5.7-13.1,12.8-13.1c4.2,0,7.1,1.3,9.2,3.4L697.9,238.7z"/>
<path class="st6" d="M728.6,244.6c0,7.2-5.8,13-12.9,13c-7.1,0-12.9-5.9-12.9-13c0-7.2,5.8-13.1,12.9-13.1
	C722.8,231.6,728.6,237.4,728.6,244.6z M723.4,244.6c0-4.5-3.5-8.2-7.8-8.2c-4.2,0-7.7,3.7-7.7,8.2c0,4.5,3.5,8.2,7.7,8.2
	C719.9,252.8,723.4,249.1,723.4,244.6z"/>
<path class="st6" d="M738.2,239.8v17.3h-4.9v-25h5.6l8,12.4l8-12.4h5v25h-4.9v-17.4l-8.4,12.7L738.2,239.8z"/>
<path class="st6" d="M765.8,232.1h4.9v25h-4.9V232.1z"/>
<path class="st6" d="M781.4,240.2v16.9h-4.9v-25h5.3l11.7,17.1v-17.1h4.9v25h-5.3L781.4,240.2z"/>
<path class="st6" d="M815.8,257.6c-7.3,0-12.8-5.9-12.8-13c0-7.2,5.7-13.1,12.8-13.1c4.2,0,7.1,1.3,9.2,3.4l-3.2,3.7
	c-1.5-1.3-3.5-2.3-6-2.3c-4.3,0-7.7,3.7-7.7,8.2c0,4.5,3.4,8.2,8,8.2c1.5,0,3-0.4,4.2-1v-7.1h4.9v10.2
	C823,256.6,819.9,257.6,815.8,257.6z"/>
</svg>
