<svg xmlns="http://www.w3.org/2000/svg" viewBox="0 0 881.9559 304.4848"><defs><style>.a{fill:#252f3e;}.b{fill:#f90;}</style></defs><title>logo-product-aws</title><path class="a" d="M352.82,144.3188a33.6275,33.6275,0,0,0,1.4209,10.668,62.1022,62.1022,0,0,0,4.127,8.622,4.9314,4.9314,0,0,1,.9062,2.75c0,1.2041-.7675,2.4024-2.4541,3.5967l-8.1367,5.0381a6.508,6.508,0,0,1-3.3574,1.0723,6.1219,6.1219,0,0,1-3.8711-1.6748,36.8239,36.8239,0,0,1-4.6455-5.63c-1.2969-2.0361-2.59-4.3193-4.0059-7.07q-15.1171,16.5351-37.9687,16.5312c-10.8486,0-19.4981-2.87-25.8281-8.624-6.334-5.749-9.5606-13.4238-9.5606-23.0049,0-10.1836,3.876-18.458,11.7549-24.6885,7.877-6.2275,18.3389-9.3437,31.64-9.3437a111.001,111.001,0,0,1,13.6846.957c4.7783.5967,9.6934,1.5635,14.8506,2.6387V107.41c0-9.1064-2.0635-15.4629-6.0644-19.1719C321.18,84.521,314.2,82.726,304.2607,82.726a63.1527,63.1527,0,0,0-13.9532,1.5576,109.531,109.531,0,0,0-13.9394,4.0713,38.465,38.465,0,0,1-4.52,1.5537,8.3293,8.3293,0,0,1-2.0655.3653c-1.81,0-2.7177-1.1944-2.7177-3.711V80.69c0-1.917.2627-3.36.9072-4.19a9.4861,9.4861,0,0,1,3.6172-2.52,78.1333,78.1333,0,0,1,16.2685-5.3916,83.928,83.928,0,0,1,20.1514-2.28c15.3652,0,26.6035,3.2344,33.83,9.708,7.0986,6.4746,10.7187,16.2959,10.7187,29.4766v38.8271Zm-52.4345,18.2119a44.721,44.721,0,0,0,13.3008-2.1611,28.9855,28.9855,0,0,0,12.2724-7.666,18.6717,18.6717,0,0,0,4.39-7.6651,40.2162,40.2162,0,0,0,1.292-10.43v-5.0322a114.6377,114.6377,0,0,0-11.8829-2.0371,105.37,105.37,0,0,0-12.1416-.7148c-8.6533,0-14.9834,1.5547-19.2382,4.788-4.2618,3.2334-6.3321,7.7911-6.3321,13.7842,0,5.6319,1.5459,9.8242,4.7842,12.6973C289.9247,161.0952,294.4433,162.5307,300.3857,162.5307Zm103.7031,12.9434c-2.3272,0-3.875-.3662-4.9063-1.2041-1.0341-.7129-1.9414-2.3936-2.7158-4.6719l-30.3506-92.623a19.7312,19.7312,0,0,1-1.1543-4.7959c0-1.919,1.0274-2.9952,3.0938-2.9952h12.6572c2.4541,0,4.1367.3575,5.0342,1.2051,1.0371.711,1.81,2.3926,2.5879,4.667l21.6933,79.3223,20.1485-79.3223c.6445-2.3926,1.4228-3.956,2.4551-4.667a9.2825,9.2825,0,0,1,5.1591-1.2051h10.3379c2.4483,0,4.13.3575,5.1631,1.2051,1.0381.711,1.9336,2.3926,2.4551,4.667L476.15,155.34l22.3418-80.2842c.7725-2.3926,1.6787-3.956,2.5781-4.667a8.8747,8.8747,0,0,1,5.043-1.2051h12.0039c2.0664,0,3.2373.96,3.2373,2.9952a10.9611,10.9611,0,0,1-.2588,1.9189,15.3332,15.3332,0,0,1-.9121,2.9941l-31.1152,92.627q-1.169,3.59-2.7158,4.6719a8.77,8.77,0,0,1-4.9131,1.2021H470.3339c-2.45,0-4.126-.36-5.16-1.2021a8.233,8.233,0,0,1-2.4483-4.793L442.7,92.311,422.8134,169.48c-.6484,2.3965-1.416,3.9561-2.4551,4.79-1.0273.8379-2.8388,1.2041-5.1631,1.2041Zm165.9492,3.2314a92.0639,92.0639,0,0,1-19.8877-2.1533c-6.459-1.4443-11.4931-2.9951-14.8564-4.7949a9.0356,9.0356,0,0,1-3.9961-3.36,7.9055,7.9055,0,0,1-.7783-3.3486v-6.11c0-2.5175,1.0332-3.7168,2.9638-3.7168a7.8425,7.8425,0,0,1,2.3311.3584c.7754.2383,1.9365.7168,3.2324,1.1973a74.622,74.622,0,0,0,14.2041,4.2,84.0274,84.0274,0,0,0,15.3652,1.43c8.1407,0,14.461-1.3115,18.8516-3.9551,4.3926-2.6338,6.7168-6.4678,6.7168-11.3769a11.244,11.244,0,0,0-3.4785-8.3926c-2.3291-2.2725-6.7139-4.3125-13.05-6.23l-18.7256-5.39c-9.4219-2.7558-16.4024-6.8359-20.6631-12.2187a27.2952,27.2952,0,0,1-6.4492-17.3809,25.1234,25.1234,0,0,1,3.4756-13.2988,31.6109,31.6109,0,0,1,9.3047-9.8252,41.9917,41.9917,0,0,1,13.4355-6.2334A60.4282,60.4282,0,0,1,574.2988,66.07a68.9176,68.9176,0,0,1,8.6484.48c2.9746.36,5.6885.835,8.3975,1.3174,2.58.6016,5.0351,1.1973,7.3593,1.9112a29.7748,29.7748,0,0,1,5.4278,2.1621,10.9512,10.9512,0,0,1,3.875,2.997,6.1175,6.1175,0,0,1,1.1572,3.9551v5.628c0,2.52-1.0274,3.8339-2.9609,3.8339a14.3049,14.3049,0,0,1-4.9161-1.4355,63.0022,63.0022,0,0,0-24.7929-4.6738c-7.3555,0-13.1709,1.0781-17.1768,3.3545a11.3843,11.3843,0,0,0-6.0664,10.665,10.9574,10.9574,0,0,0,3.87,8.5117c2.584,2.2754,7.3633,4.5508,14.2139,6.5879l18.33,5.3945c9.3037,2.751,16.0244,6.5869,20.0195,11.501a25.8185,25.8185,0,0,1,5.9355,16.7783,28.9847,28.9847,0,0,1-3.3544,13.8994,32.979,32.979,0,0,1-9.4219,10.542,42.9179,42.9179,0,0,1-14.3321,6.7061A65.7808,65.7808,0,0,1,570.038,178.7055Z"/><path class="b" d="M594.4472,236.9379c-42.49,29.125-104.2188,44.5811-157.294,44.5811-74.3867,0-141.413-25.5254-192.039-67.94-4.0088-3.3593-.3945-7.9111,4.3906-5.2783,54.7559,29.4834,122.3008,47.3379,192.1631,47.3379A409.3676,409.3676,0,0,0,588.247,227.8354C595.3505,224.8335,601.4169,232.1518,594.4472,236.9379Z"/><path class="b" d="M612.1386,218.2465c-5.4277-6.4677-35.8994-3.1113-49.7148-1.5595-4.1377.4853-4.7842-2.8711-1.044-5.3838,24.2783-15.8184,64.1943-11.2686,68.84-5.9951,4.6494,5.3867-1.2969,42.4189-24.0166,60.1523-3.4922,2.7559-6.8457,1.3145-5.2979-2.2764C606.0722,251.32,617.5634,224.5971,612.1386,218.2465Z"/></svg>